<svg width="1602" height="312" opacity="0.5" viewBox="0 0 1602 312" xmlns="http://www.w3.org/2000/svg" xmlns:xlink="http://www.w3.org/1999/xlink">
  <title>
    Organism / Pattern / Big Copy
  </title>
  <defs>
    <path d="M15 4h2v6h-2V4zm4.535 7.05l4.243-4.242 1.414 1.414-4.242 4.243-1.415-1.415zM22 15h6v2h-6v-2zm-2.465 5.95l1.415-1.414 4.242 4.242-1.414 1.414-4.243-4.242zM15 22h2v6h-2v-6zm-8.193 1.778l4.243-4.243 1.414 1.415-4.242 4.242-1.415-1.414zM4 15h6v2H4v-2zm2.808-6.778l1.414-1.414 4.242 4.242-1.414 1.414-4.242-4.242z" id="a"/>
    <path d="M26.642 11.69l-7.334-7.333c-.338-.338-.845-.447-1.294-.28L8.236 7.744c-.412.154-.71.522-.777.958l-2.446 15.89c-.06.383.07.774.344 1.05.23.23.54.357.864.357.062 0 .125-.006.186-.015l15.89-2.445c.435-.067.802-.364.957-.778l3.667-9.778c.168-.45.058-.955-.28-1.293zm-8.914 5.038c-.954.954-2.502.954-3.456 0-.955-.955-.955-2.502 0-3.457.954-.953 2.502-.953 3.456 0 .955.956.955 2.503 0 3.458z" id="c"/>
    <path d="M15 4h2v6h-2V4zm4.535 7.05l4.243-4.242 1.414 1.414-4.242 4.243-1.415-1.415zM22 15h6v2h-6v-2zm-2.465 5.95l1.415-1.414 4.242 4.242-1.414 1.414-4.243-4.242zM15 22h2v6h-2v-6zm-8.193 1.778l4.243-4.243 1.414 1.415-4.242 4.242-1.415-1.414zM4 15h6v2H4v-2zm2.808-6.778l1.414-1.414 4.242 4.242-1.414 1.414-4.242-4.242z" id="e"/>
    <path d="M15 4h2v6h-2V4zm4.535 7.05l4.243-4.242 1.414 1.414-4.242 4.243-1.415-1.415zM22 15h6v2h-6v-2zm-2.465 5.95l1.415-1.414 4.242 4.242-1.414 1.414-4.243-4.242zM15 22h2v6h-2v-6zm-8.193 1.778l4.243-4.243 1.414 1.415-4.242 4.242-1.415-1.414zM4 15h6v2H4v-2zm2.808-6.778l1.414-1.414 4.242 4.242-1.414 1.414-4.242-4.242z" id="g"/>
    <path d="M15 4h2v6h-2V4zm4.535 7.05l4.243-4.242 1.414 1.414-4.242 4.243-1.415-1.415zM22 15h6v2h-6v-2zm-2.465 5.95l1.415-1.414 4.242 4.242-1.414 1.414-4.243-4.242zM15 22h2v6h-2v-6zm-8.193 1.778l4.243-4.243 1.414 1.415-4.242 4.242-1.415-1.414zM4 15h6v2H4v-2zm2.808-6.778l1.414-1.414 4.242 4.242-1.414 1.414-4.242-4.242z" id="i"/>
    <path d="M15 4h2v6h-2V4zm4.535 7.05l4.243-4.242 1.414 1.414-4.242 4.243-1.415-1.415zM22 15h6v2h-6v-2zm-2.465 5.95l1.415-1.414 4.242 4.242-1.414 1.414-4.243-4.242zM15 22h2v6h-2v-6zm-8.193 1.778l4.243-4.243 1.414 1.415-4.242 4.242-1.415-1.414zM4 15h6v2H4v-2zm2.808-6.778l1.414-1.414 4.242 4.242-1.414 1.414-4.242-4.242z" id="k"/>
    <path d="M18.242 13.758C19.375 14.89 20 16.398 20 18c0 1.603-.625 3.11-1.757 4.243l-3 3C14.11 26.375 12.603 27 11 27c-1.603 0-3.11-.624-4.243-1.758C5.624 24.11 5 22.602 5 21c0-1.603.624-3.11 1.757-4.242l3-3c.086-.085.177-.162.266-.24-.01.16-.023.32-.023.482 0 .71.098 1.4.275 2.068L8.17 18.172C7.417 18.928 7 19.932 7 21c0 1.068.416 2.072 1.172 2.828 1.51 1.512 4.145 1.512 5.657 0l3-3C17.583 20.074 18 19.07 18 18c0-1.068-.417-2.072-1.172-2.828-.22-.22-.467-.403-.726-.564C16.04 14.415 16 14.213 16 14c0-.532.208-1.034.583-1.41.607.29 1.17.678 1.66 1.168zm7-7C26.377 7.89 27 9.398 27 11c0 1.603-.624 3.11-1.756 4.242l-3 3c-.085.085-.176.16-.265.24.008-.16.02-.32.02-.482 0-.708-.1-1.4-.278-2.065l2.107-2.107C24.583 13.072 25 12.068 25 11c0-1.068-.416-2.072-1.17-2.828C23.072 7.416 22.067 7 21 7s-2.073.416-2.83 1.172l-3 3C14.417 11.926 14 12.93 14 14c0 1.068.417 2.072 1.173 2.828.218.218.463.395.72.55.066.197.107.404.107.622 0 .532-.208 1.034-.584 1.41-.607-.29-1.17-.678-1.66-1.168C12.625 17.11 12 15.602 12 14c0-1.603.625-3.11 1.757-4.243l3-3C17.89 5.625 19.397 5 21 5c1.603 0 3.11.624 4.243 1.758z" id="m"/>
    <path d="M18.242 13.758C19.375 14.89 20 16.398 20 18c0 1.603-.625 3.11-1.757 4.243l-3 3C14.11 26.375 12.603 27 11 27c-1.603 0-3.11-.624-4.243-1.758C5.624 24.11 5 22.602 5 21c0-1.603.624-3.11 1.757-4.242l3-3c.086-.085.177-.162.266-.24-.01.16-.023.32-.023.482 0 .71.098 1.4.275 2.068L8.17 18.172C7.417 18.928 7 19.932 7 21c0 1.068.416 2.072 1.172 2.828 1.51 1.512 4.145 1.512 5.657 0l3-3C17.583 20.074 18 19.07 18 18c0-1.068-.417-2.072-1.172-2.828-.22-.22-.467-.403-.726-.564C16.04 14.415 16 14.213 16 14c0-.532.208-1.034.583-1.41.607.29 1.17.678 1.66 1.168zm7-7C26.377 7.89 27 9.398 27 11c0 1.603-.624 3.11-1.756 4.242l-3 3c-.085.085-.176.16-.265.24.008-.16.02-.32.02-.482 0-.708-.1-1.4-.278-2.065l2.107-2.107C24.583 13.072 25 12.068 25 11c0-1.068-.416-2.072-1.17-2.828C23.072 7.416 22.067 7 21 7s-2.073.416-2.83 1.172l-3 3C14.417 11.926 14 12.93 14 14c0 1.068.417 2.072 1.173 2.828.218.218.463.395.72.55.066.197.107.404.107.622 0 .532-.208 1.034-.584 1.41-.607-.29-1.17-.678-1.66-1.168C12.625 17.11 12 15.602 12 14c0-1.603.625-3.11 1.757-4.243l3-3C17.89 5.625 19.397 5 21 5c1.603 0 3.11.624 4.243 1.758z" id="o"/>
    <path d="M26.597 5.402c-.376-.374-.935-.5-1.434-.32l-19.25 6.874c-.52.184-.878.66-.91 1.21-.034.55.263 1.065.757 1.313l6.306 3.15 8.06-5.756-5.758 8.06 3.15 6.306c.236.466.713.76 1.232.76.028 0 .056-.002.083-.003.55-.033 1.028-.39 1.213-.91l6.875-19.25c.18-.5.052-1.06-.323-1.435z" id="q"/>
    <path d="M26.597 5.402c-.376-.374-.935-.5-1.434-.32l-19.25 6.874c-.52.184-.878.66-.91 1.21-.034.55.263 1.065.757 1.313l6.306 3.15 8.06-5.756-5.758 8.06 3.15 6.306c.236.466.713.76 1.232.76.028 0 .056-.002.083-.003.55-.033 1.028-.39 1.213-.91l6.875-19.25c.18-.5.052-1.06-.323-1.435z" id="s"/>
    <path d="M8 15v13H5c-.6 0-1-.4-1-1V16c0-.6.4-1 1-1h3zm18.5-.6c.8.9 1.1 2.1 1 3.2l-1.1 7c-.3 2-2 3.4-4 3.4H10V15l3-10.3c.2-.4.5-.7 1-.7 2.2 0 3 1.8 3 4v5h6.5c1.1 0 2.2.5 3 1.4z" id="u"/>
    <path d="M26.642 11.69l-7.334-7.333c-.338-.338-.845-.447-1.294-.28L8.236 7.744c-.412.154-.71.522-.777.958l-2.446 15.89c-.06.383.07.774.344 1.05.23.23.54.357.864.357.062 0 .125-.006.186-.015l15.89-2.445c.435-.067.802-.364.957-.778l3.667-9.778c.168-.45.058-.955-.28-1.293zm-8.914 5.038c-.954.954-2.502.954-3.456 0-.955-.955-.955-2.502 0-3.457.954-.953 2.502-.953 3.456 0 .955.956.955 2.503 0 3.458z" id="w"/>
    <path d="M27.868 5.057c.017-.284-.09-.56-.29-.762-.2-.202-.495-.312-.76-.293-4.195.22-7.593 1.493-10.306 3.17-3.287-1.2-6.94-.43-9.44 2.07-.522.522-.987 1.128-1.384 1.8-.23.392-.167.892.155 1.215l2.882 2.882c-.784 1.296-1.154 2.182-1.167 2.215-.15.372-.062.797.22 1.08l5.658 5.657c.19.19.447.293.707.293.128 0 .256-.024.38-.074.032-.012.91-.385 2.2-1.173l2.892 2.89c.192.194.448.294.707.294.175 0 .35-.044.508-.138.674-.397 1.278-.862 1.8-1.383 2.52-2.523 3.287-6.194 2.058-9.49 1.67-2.707 2.944-6.09 3.18-10.253zm-13.51 17.13L9.68 17.508c.817-1.69 3.538-6.486 9.05-9.336l4.94 4.94c-2.854 5.503-7.626 8.245-9.312 9.072zm-9.245.528c1.11-1.11 2.91-1.11 4.022 0 1.11 1.11 1.11 2.91 0 4.022C8.025 27.847 4 27.87 4 27.87s.002-4.045 1.113-5.155zm14.3-7.43c.782-.78.782-2.047 0-2.828-.78-.78-2.046-.78-2.827 0-.78.78-.78 2.047 0 2.83.78.78 2.047.78 2.828 0z" id="y"/>
    <path d="M16 4l12 7-12 7-12-7 12-7zm0 21.315l9.7-5.657L28 21l-12 7-12-7 2.3-1.342 9.7 5.657zm0-5l9.7-5.657L28 16l-12 7-12-7 2.3-1.342 9.7 5.657z" id="A"/>
    <path d="M18.242 13.758C19.375 14.89 20 16.398 20 18c0 1.603-.625 3.11-1.757 4.243l-3 3C14.11 26.375 12.603 27 11 27c-1.603 0-3.11-.624-4.243-1.758C5.624 24.11 5 22.602 5 21c0-1.603.624-3.11 1.757-4.242l3-3c.086-.085.177-.162.266-.24-.01.16-.023.32-.023.482 0 .71.098 1.4.275 2.068L8.17 18.172C7.417 18.928 7 19.932 7 21c0 1.068.416 2.072 1.172 2.828 1.51 1.512 4.145 1.512 5.657 0l3-3C17.583 20.074 18 19.07 18 18c0-1.068-.417-2.072-1.172-2.828-.22-.22-.467-.403-.726-.564C16.04 14.415 16 14.213 16 14c0-.532.208-1.034.583-1.41.607.29 1.17.678 1.66 1.168zm7-7C26.377 7.89 27 9.398 27 11c0 1.603-.624 3.11-1.756 4.242l-3 3c-.085.085-.176.16-.265.24.008-.16.02-.32.02-.482 0-.708-.1-1.4-.278-2.065l2.107-2.107C24.583 13.072 25 12.068 25 11c0-1.068-.416-2.072-1.17-2.828C23.072 7.416 22.067 7 21 7s-2.073.416-2.83 1.172l-3 3C14.417 11.926 14 12.93 14 14c0 1.068.417 2.072 1.173 2.828.218.218.463.395.72.55.066.197.107.404.107.622 0 .532-.208 1.034-.584 1.41-.607-.29-1.17-.678-1.66-1.168C12.625 17.11 12 15.602 12 14c0-1.603.625-3.11 1.757-4.243l3-3C17.89 5.625 19.397 5 21 5c1.603 0 3.11.624 4.243 1.758z" id="C"/>
    <path d="M18.242 13.758C19.375 14.89 20 16.398 20 18c0 1.603-.625 3.11-1.757 4.243l-3 3C14.11 26.375 12.603 27 11 27c-1.603 0-3.11-.624-4.243-1.758C5.624 24.11 5 22.602 5 21c0-1.603.624-3.11 1.757-4.242l3-3c.086-.085.177-.162.266-.24-.01.16-.023.32-.023.482 0 .71.098 1.4.275 2.068L8.17 18.172C7.417 18.928 7 19.932 7 21c0 1.068.416 2.072 1.172 2.828 1.51 1.512 4.145 1.512 5.657 0l3-3C17.583 20.074 18 19.07 18 18c0-1.068-.417-2.072-1.172-2.828-.22-.22-.467-.403-.726-.564C16.04 14.415 16 14.213 16 14c0-.532.208-1.034.583-1.41.607.29 1.17.678 1.66 1.168zm7-7C26.377 7.89 27 9.398 27 11c0 1.603-.624 3.11-1.756 4.242l-3 3c-.085.085-.176.16-.265.24.008-.16.02-.32.02-.482 0-.708-.1-1.4-.278-2.065l2.107-2.107C24.583 13.072 25 12.068 25 11c0-1.068-.416-2.072-1.17-2.828C23.072 7.416 22.067 7 21 7s-2.073.416-2.83 1.172l-3 3C14.417 11.926 14 12.93 14 14c0 1.068.417 2.072 1.173 2.828.218.218.463.395.72.55.066.197.107.404.107.622 0 .532-.208 1.034-.584 1.41-.607-.29-1.17-.678-1.66-1.168C12.625 17.11 12 15.602 12 14c0-1.603.625-3.11 1.757-4.243l3-3C17.89 5.625 19.397 5 21 5c1.603 0 3.11.624 4.243 1.758z" id="E"/>
    <path d="M18.242 13.758C19.375 14.89 20 16.398 20 18c0 1.603-.625 3.11-1.757 4.243l-3 3C14.11 26.375 12.603 27 11 27c-1.603 0-3.11-.624-4.243-1.758C5.624 24.11 5 22.602 5 21c0-1.603.624-3.11 1.757-4.242l3-3c.086-.085.177-.162.266-.24-.01.16-.023.32-.023.482 0 .71.098 1.4.275 2.068L8.17 18.172C7.417 18.928 7 19.932 7 21c0 1.068.416 2.072 1.172 2.828 1.51 1.512 4.145 1.512 5.657 0l3-3C17.583 20.074 18 19.07 18 18c0-1.068-.417-2.072-1.172-2.828-.22-.22-.467-.403-.726-.564C16.04 14.415 16 14.213 16 14c0-.532.208-1.034.583-1.41.607.29 1.17.678 1.66 1.168zm7-7C26.377 7.89 27 9.398 27 11c0 1.603-.624 3.11-1.756 4.242l-3 3c-.085.085-.176.16-.265.24.008-.16.02-.32.02-.482 0-.708-.1-1.4-.278-2.065l2.107-2.107C24.583 13.072 25 12.068 25 11c0-1.068-.416-2.072-1.17-2.828C23.072 7.416 22.067 7 21 7s-2.073.416-2.83 1.172l-3 3C14.417 11.926 14 12.93 14 14c0 1.068.417 2.072 1.173 2.828.218.218.463.395.72.55.066.197.107.404.107.622 0 .532-.208 1.034-.584 1.41-.607-.29-1.17-.678-1.66-1.168C12.625 17.11 12 15.602 12 14c0-1.603.625-3.11 1.757-4.243l3-3C17.89 5.625 19.397 5 21 5c1.603 0 3.11.624 4.243 1.758z" id="G"/>
    <path d="M18.242 13.758C19.375 14.89 20 16.398 20 18c0 1.603-.625 3.11-1.757 4.243l-3 3C14.11 26.375 12.603 27 11 27c-1.603 0-3.11-.624-4.243-1.758C5.624 24.11 5 22.602 5 21c0-1.603.624-3.11 1.757-4.242l3-3c.086-.085.177-.162.266-.24-.01.16-.023.32-.023.482 0 .71.098 1.4.275 2.068L8.17 18.172C7.417 18.928 7 19.932 7 21c0 1.068.416 2.072 1.172 2.828 1.51 1.512 4.145 1.512 5.657 0l3-3C17.583 20.074 18 19.07 18 18c0-1.068-.417-2.072-1.172-2.828-.22-.22-.467-.403-.726-.564C16.04 14.415 16 14.213 16 14c0-.532.208-1.034.583-1.41.607.29 1.17.678 1.66 1.168zm7-7C26.377 7.89 27 9.398 27 11c0 1.603-.624 3.11-1.756 4.242l-3 3c-.085.085-.176.16-.265.24.008-.16.02-.32.02-.482 0-.708-.1-1.4-.278-2.065l2.107-2.107C24.583 13.072 25 12.068 25 11c0-1.068-.416-2.072-1.17-2.828C23.072 7.416 22.067 7 21 7s-2.073.416-2.83 1.172l-3 3C14.417 11.926 14 12.93 14 14c0 1.068.417 2.072 1.173 2.828.218.218.463.395.72.55.066.197.107.404.107.622 0 .532-.208 1.034-.584 1.41-.607-.29-1.17-.678-1.66-1.168C12.625 17.11 12 15.602 12 14c0-1.603.625-3.11 1.757-4.243l3-3C17.89 5.625 19.397 5 21 5c1.603 0 3.11.624 4.243 1.758z" id="I"/>
    <path d="M21 5c-1.9 0-3.7.8-5 2.1C14.7 5.8 12.9 5 11 5c-3.9 0-7 3.1-7 7 0 6.4 10.9 15.4 11.4 15.8.2.2.4.2.6.2.2 0 .4-.1.6-.2.5-.4 11.4-9.4 11.4-15.8 0-3.9-3.1-7-7-7z" id="K"/>
    <path d="M21 5c-1.9 0-3.7.8-5 2.1C14.7 5.8 12.9 5 11 5c-3.9 0-7 3.1-7 7 0 6.4 10.9 15.4 11.4 15.8.2.2.4.2.6.2.2 0 .4-.1.6-.2.5-.4 11.4-9.4 11.4-15.8 0-3.9-3.1-7-7-7z" id="M"/>
    <path d="M8 15v13H5c-.6 0-1-.4-1-1V16c0-.6.4-1 1-1h3zm18.5-.6c.8.9 1.1 2.1 1 3.2l-1.1 7c-.3 2-2 3.4-4 3.4H10V15l3-10.3c.2-.4.5-.7 1-.7 2.2 0 3 1.8 3 4v5h6.5c1.1 0 2.2.5 3 1.4z" id="O"/>
    <path d="M8 15v13H5c-.6 0-1-.4-1-1V16c0-.6.4-1 1-1h3zm18.5-.6c.8.9 1.1 2.1 1 3.2l-1.1 7c-.3 2-2 3.4-4 3.4H10V15l3-10.3c.2-.4.5-.7 1-.7 2.2 0 3 1.8 3 4v5h6.5c1.1 0 2.2.5 3 1.4z" id="Q"/>
    <path d="M8 15v13H5c-.6 0-1-.4-1-1V16c0-.6.4-1 1-1h3zm18.5-.6c.8.9 1.1 2.1 1 3.2l-1.1 7c-.3 2-2 3.4-4 3.4H10V15l3-10.3c.2-.4.5-.7 1-.7 2.2 0 3 1.8 3 4v5h6.5c1.1 0 2.2.5 3 1.4z" id="S"/>
    <path d="M26.642 11.69l-7.334-7.333c-.338-.338-.845-.447-1.294-.28L8.236 7.744c-.412.154-.71.522-.777.958l-2.446 15.89c-.06.383.07.774.344 1.05.23.23.54.357.864.357.062 0 .125-.006.186-.015l15.89-2.445c.435-.067.802-.364.957-.778l3.667-9.778c.168-.45.058-.955-.28-1.293zm-8.914 5.038c-.954.954-2.502.954-3.456 0-.955-.955-.955-2.502 0-3.457.954-.953 2.502-.953 3.456 0 .955.956.955 2.503 0 3.458z" id="U"/>
    <path d="M26.642 11.69l-7.334-7.333c-.338-.338-.845-.447-1.294-.28L8.236 7.744c-.412.154-.71.522-.777.958l-2.446 15.89c-.06.383.07.774.344 1.05.23.23.54.357.864.357.062 0 .125-.006.186-.015l15.89-2.445c.435-.067.802-.364.957-.778l3.667-9.778c.168-.45.058-.955-.28-1.293zm-8.914 5.038c-.954.954-2.502.954-3.456 0-.955-.955-.955-2.502 0-3.457.954-.953 2.502-.953 3.456 0 .955.956.955 2.503 0 3.458z" id="W"/>
    <path d="M27.868 5.057c.017-.284-.09-.56-.29-.762-.2-.202-.495-.312-.76-.293-4.195.22-7.593 1.493-10.306 3.17-3.287-1.2-6.94-.43-9.44 2.07-.522.522-.987 1.128-1.384 1.8-.23.392-.167.892.155 1.215l2.882 2.882c-.784 1.296-1.154 2.182-1.167 2.215-.15.372-.062.797.22 1.08l5.658 5.657c.19.19.447.293.707.293.128 0 .256-.024.38-.074.032-.012.91-.385 2.2-1.173l2.892 2.89c.192.194.448.294.707.294.175 0 .35-.044.508-.138.674-.397 1.278-.862 1.8-1.383 2.52-2.523 3.287-6.194 2.058-9.49 1.67-2.707 2.944-6.09 3.18-10.253zm-13.51 17.13L9.68 17.508c.817-1.69 3.538-6.486 9.05-9.336l4.94 4.94c-2.854 5.503-7.626 8.245-9.312 9.072zm-9.245.528c1.11-1.11 2.91-1.11 4.022 0 1.11 1.11 1.11 2.91 0 4.022C8.025 27.847 4 27.87 4 27.87s.002-4.045 1.113-5.155zm14.3-7.43c.782-.78.782-2.047 0-2.828-.78-.78-2.046-.78-2.827 0-.78.78-.78 2.047 0 2.83.78.78 2.047.78 2.828 0z" id="Y"/>
    <path d="M27.868 5.057c.017-.284-.09-.56-.29-.762-.2-.202-.495-.312-.76-.293-4.195.22-7.593 1.493-10.306 3.17-3.287-1.2-6.94-.43-9.44 2.07-.522.522-.987 1.128-1.384 1.8-.23.392-.167.892.155 1.215l2.882 2.882c-.784 1.296-1.154 2.182-1.167 2.215-.15.372-.062.797.22 1.08l5.658 5.657c.19.19.447.293.707.293.128 0 .256-.024.38-.074.032-.012.91-.385 2.2-1.173l2.892 2.89c.192.194.448.294.707.294.175 0 .35-.044.508-.138.674-.397 1.278-.862 1.8-1.383 2.52-2.523 3.287-6.194 2.058-9.49 1.67-2.707 2.944-6.09 3.18-10.253zm-13.51 17.13L9.68 17.508c.817-1.69 3.538-6.486 9.05-9.336l4.94 4.94c-2.854 5.503-7.626 8.245-9.312 9.072zm-9.245.528c1.11-1.11 2.91-1.11 4.022 0 1.11 1.11 1.11 2.91 0 4.022C8.025 27.847 4 27.87 4 27.87s.002-4.045 1.113-5.155zm14.3-7.43c.782-.78.782-2.047 0-2.828-.78-.78-2.046-.78-2.827 0-.78.78-.78 2.047 0 2.83.78.78 2.047.78 2.828 0z" id="aa"/>
    <path d="M27.868 5.057c.017-.284-.09-.56-.29-.762-.2-.202-.495-.312-.76-.293-4.195.22-7.593 1.493-10.306 3.17-3.287-1.2-6.94-.43-9.44 2.07-.522.522-.987 1.128-1.384 1.8-.23.392-.167.892.155 1.215l2.882 2.882c-.784 1.296-1.154 2.182-1.167 2.215-.15.372-.062.797.22 1.08l5.658 5.657c.19.19.447.293.707.293.128 0 .256-.024.38-.074.032-.012.91-.385 2.2-1.173l2.892 2.89c.192.194.448.294.707.294.175 0 .35-.044.508-.138.674-.397 1.278-.862 1.8-1.383 2.52-2.523 3.287-6.194 2.058-9.49 1.67-2.707 2.944-6.09 3.18-10.253zm-13.51 17.13L9.68 17.508c.817-1.69 3.538-6.486 9.05-9.336l4.94 4.94c-2.854 5.503-7.626 8.245-9.312 9.072zm-9.245.528c1.11-1.11 2.91-1.11 4.022 0 1.11 1.11 1.11 2.91 0 4.022C8.025 27.847 4 27.87 4 27.87s.002-4.045 1.113-5.155zm14.3-7.43c.782-.78.782-2.047 0-2.828-.78-.78-2.046-.78-2.827 0-.78.78-.78 2.047 0 2.83.78.78 2.047.78 2.828 0z" id="ac"/>
    <path d="M16 4l12 7-12 7-12-7 12-7zm0 21.315l9.7-5.657L28 21l-12 7-12-7 2.3-1.342 9.7 5.657zm0-5l9.7-5.657L28 16l-12 7-12-7 2.3-1.342 9.7 5.657z" id="ae"/>
    <path d="M21 5c-1.9 0-3.7.8-5 2.1C14.7 5.8 12.9 5 11 5c-3.9 0-7 3.1-7 7 0 6.4 10.9 15.4 11.4 15.8.2.2.4.2.6.2.2 0 .4-.1.6-.2.5-.4 11.4-9.4 11.4-15.8 0-3.9-3.1-7-7-7z" id="ag"/>
    <path d="M21 5c-1.9 0-3.7.8-5 2.1C14.7 5.8 12.9 5 11 5c-3.9 0-7 3.1-7 7 0 6.4 10.9 15.4 11.4 15.8.2.2.4.2.6.2.2 0 .4-.1.6-.2.5-.4 11.4-9.4 11.4-15.8 0-3.9-3.1-7-7-7z" id="ai"/>
    <path d="M26.597 5.402c-.376-.374-.935-.5-1.434-.32l-19.25 6.874c-.52.184-.878.66-.91 1.21-.034.55.263 1.065.757 1.313l6.306 3.15 8.06-5.756-5.758 8.06 3.15 6.306c.236.466.713.76 1.232.76.028 0 .056-.002.083-.003.55-.033 1.028-.39 1.213-.91l6.875-19.25c.18-.5.052-1.06-.323-1.435z" id="ak"/>
    <path d="M26.597 5.402c-.376-.374-.935-.5-1.434-.32l-19.25 6.874c-.52.184-.878.66-.91 1.21-.034.55.263 1.065.757 1.313l6.306 3.15 8.06-5.756-5.758 8.06 3.15 6.306c.236.466.713.76 1.232.76.028 0 .056-.002.083-.003.55-.033 1.028-.39 1.213-.91l6.875-19.25c.18-.5.052-1.06-.323-1.435z" id="am"/>
    <path d="M26.832 15.445C26.656 15.182 22.462 9 16 9 9.506 9 5.34 15.185 5.166 15.448c-.222.335-.222.77.002 1.106C5.344 16.818 9.538 23 16 23c6.428 0 10.653-6.18 10.83-6.442.226-.336.227-.776.002-1.113zM16 21c-4.35 0-7.635-3.596-8.753-5.002.658-.832 2.075-2.425 4.024-3.59-.17.5-.27 1.033-.27 1.592 0 2.757 2.243 5 5 5s5-2.243 5-5c0-.555-.1-1.085-.268-1.582 1.94 1.164 3.357 2.75 4.018 3.58C23.623 17.41 20.324 21 16 21z" id="ao"/>
    <path d="M26.832 15.445C26.656 15.182 22.462 9 16 9 9.506 9 5.34 15.185 5.166 15.448c-.222.335-.222.77.002 1.106C5.344 16.818 9.538 23 16 23c6.428 0 10.653-6.18 10.83-6.442.226-.336.227-.776.002-1.113zM16 21c-4.35 0-7.635-3.596-8.753-5.002.658-.832 2.075-2.425 4.024-3.59-.17.5-.27 1.033-.27 1.592 0 2.757 2.243 5 5 5s5-2.243 5-5c0-.555-.1-1.085-.268-1.582 1.94 1.164 3.357 2.75 4.018 3.58C23.623 17.41 20.324 21 16 21z" id="aq"/>
    <path d="M26.832 15.445C26.656 15.182 22.462 9 16 9 9.506 9 5.34 15.185 5.166 15.448c-.222.335-.222.77.002 1.106C5.344 16.818 9.538 23 16 23c6.428 0 10.653-6.18 10.83-6.442.226-.336.227-.776.002-1.113zM16 21c-4.35 0-7.635-3.596-8.753-5.002.658-.832 2.075-2.425 4.024-3.59-.17.5-.27 1.033-.27 1.592 0 2.757 2.243 5 5 5s5-2.243 5-5c0-.555-.1-1.085-.268-1.582 1.94 1.164 3.357 2.75 4.018 3.58C23.623 17.41 20.324 21 16 21z" id="as"/>
    <path d="M26.832 15.445C26.656 15.182 22.462 9 16 9 9.506 9 5.34 15.185 5.166 15.448c-.222.335-.222.77.002 1.106C5.344 16.818 9.538 23 16 23c6.428 0 10.653-6.18 10.83-6.442.226-.336.227-.776.002-1.113zM16 21c-4.35 0-7.635-3.596-8.753-5.002.658-.832 2.075-2.425 4.024-3.59-.17.5-.27 1.033-.27 1.592 0 2.757 2.243 5 5 5s5-2.243 5-5c0-.555-.1-1.085-.268-1.582 1.94 1.164 3.357 2.75 4.018 3.58C23.623 17.41 20.324 21 16 21z" id="au"/>
    <path d="M26.832 15.445C26.656 15.182 22.462 9 16 9 9.506 9 5.34 15.185 5.166 15.448c-.222.335-.222.77.002 1.106C5.344 16.818 9.538 23 16 23c6.428 0 10.653-6.18 10.83-6.442.226-.336.227-.776.002-1.113zM16 21c-4.35 0-7.635-3.596-8.753-5.002.658-.832 2.075-2.425 4.024-3.59-.17.5-.27 1.033-.27 1.592 0 2.757 2.243 5 5 5s5-2.243 5-5c0-.555-.1-1.085-.268-1.582 1.94 1.164 3.357 2.75 4.018 3.58C23.623 17.41 20.324 21 16 21z" id="aw"/>
    <path d="M8 15v13H5c-.6 0-1-.4-1-1V16c0-.6.4-1 1-1h3zm18.5-.6c.8.9 1.1 2.1 1 3.2l-1.1 7c-.3 2-2 3.4-4 3.4H10V15l3-10.3c.2-.4.5-.7 1-.7 2.2 0 3 1.8 3 4v5h6.5c1.1 0 2.2.5 3 1.4z" id="ay"/>
    <path d="M26.642 11.69l-7.334-7.333c-.338-.338-.845-.447-1.294-.28L8.236 7.744c-.412.154-.71.522-.777.958l-2.446 15.89c-.06.383.07.774.344 1.05.23.23.54.357.864.357.062 0 .125-.006.186-.015l15.89-2.445c.435-.067.802-.364.957-.778l3.667-9.778c.168-.45.058-.955-.28-1.293zm-8.914 5.038c-.954.954-2.502.954-3.456 0-.955-.955-.955-2.502 0-3.457.954-.953 2.502-.953 3.456 0 .955.956.955 2.503 0 3.458z" id="aA"/>
    <path d="M26.642 11.69l-7.334-7.333c-.338-.338-.845-.447-1.294-.28L8.236 7.744c-.412.154-.71.522-.777.958l-2.446 15.89c-.06.383.07.774.344 1.05.23.23.54.357.864.357.062 0 .125-.006.186-.015l15.89-2.445c.435-.067.802-.364.957-.778l3.667-9.778c.168-.45.058-.955-.28-1.293zm-8.914 5.038c-.954.954-2.502.954-3.456 0-.955-.955-.955-2.502 0-3.457.954-.953 2.502-.953 3.456 0 .955.956.955 2.503 0 3.458z" id="aC"/>
    <path d="M26.642 11.69l-7.334-7.333c-.338-.338-.845-.447-1.294-.28L8.236 7.744c-.412.154-.71.522-.777.958l-2.446 15.89c-.06.383.07.774.344 1.05.23.23.54.357.864.357.062 0 .125-.006.186-.015l15.89-2.445c.435-.067.802-.364.957-.778l3.667-9.778c.168-.45.058-.955-.28-1.293zm-8.914 5.038c-.954.954-2.502.954-3.456 0-.955-.955-.955-2.502 0-3.457.954-.953 2.502-.953 3.456 0 .955.956.955 2.503 0 3.458z" id="aE"/>
    <path d="M27.868 5.057c.017-.284-.09-.56-.29-.762-.2-.202-.495-.312-.76-.293-4.195.22-7.593 1.493-10.306 3.17-3.287-1.2-6.94-.43-9.44 2.07-.522.522-.987 1.128-1.384 1.8-.23.392-.167.892.155 1.215l2.882 2.882c-.784 1.296-1.154 2.182-1.167 2.215-.15.372-.062.797.22 1.08l5.658 5.657c.19.19.447.293.707.293.128 0 .256-.024.38-.074.032-.012.91-.385 2.2-1.173l2.892 2.89c.192.194.448.294.707.294.175 0 .35-.044.508-.138.674-.397 1.278-.862 1.8-1.383 2.52-2.523 3.287-6.194 2.058-9.49 1.67-2.707 2.944-6.09 3.18-10.253zm-13.51 17.13L9.68 17.508c.817-1.69 3.538-6.486 9.05-9.336l4.94 4.94c-2.854 5.503-7.626 8.245-9.312 9.072zm-9.245.528c1.11-1.11 2.91-1.11 4.022 0 1.11 1.11 1.11 2.91 0 4.022C8.025 27.847 4 27.87 4 27.87s.002-4.045 1.113-5.155zm14.3-7.43c.782-.78.782-2.047 0-2.828-.78-.78-2.046-.78-2.827 0-.78.78-.78 2.047 0 2.83.78.78 2.047.78 2.828 0z" id="aG"/>
    <path d="M27.868 5.057c.017-.284-.09-.56-.29-.762-.2-.202-.495-.312-.76-.293-4.195.22-7.593 1.493-10.306 3.17-3.287-1.2-6.94-.43-9.44 2.07-.522.522-.987 1.128-1.384 1.8-.23.392-.167.892.155 1.215l2.882 2.882c-.784 1.296-1.154 2.182-1.167 2.215-.15.372-.062.797.22 1.08l5.658 5.657c.19.19.447.293.707.293.128 0 .256-.024.38-.074.032-.012.91-.385 2.2-1.173l2.892 2.89c.192.194.448.294.707.294.175 0 .35-.044.508-.138.674-.397 1.278-.862 1.8-1.383 2.52-2.523 3.287-6.194 2.058-9.49 1.67-2.707 2.944-6.09 3.18-10.253zm-13.51 17.13L9.68 17.508c.817-1.69 3.538-6.486 9.05-9.336l4.94 4.94c-2.854 5.503-7.626 8.245-9.312 9.072zm-9.245.528c1.11-1.11 2.91-1.11 4.022 0 1.11 1.11 1.11 2.91 0 4.022C8.025 27.847 4 27.87 4 27.87s.002-4.045 1.113-5.155zm14.3-7.43c.782-.78.782-2.047 0-2.828-.78-.78-2.046-.78-2.827 0-.78.78-.78 2.047 0 2.83.78.78 2.047.78 2.828 0z" id="aI"/>
    <path d="M15 4h2v6h-2V4zm4.535 7.05l4.243-4.242 1.414 1.414-4.242 4.243-1.415-1.415zM22 15h6v2h-6v-2zm-2.465 5.95l1.415-1.414 4.242 4.242-1.414 1.414-4.243-4.242zM15 22h2v6h-2v-6zm-8.193 1.778l4.243-4.243 1.414 1.415-4.242 4.242-1.415-1.414zM4 15h6v2H4v-2zm2.808-6.778l1.414-1.414 4.242 4.242-1.414 1.414-4.242-4.242z" id="aK"/>
    <path d="M21 5c-1.9 0-3.7.8-5 2.1C14.7 5.8 12.9 5 11 5c-3.9 0-7 3.1-7 7 0 6.4 10.9 15.4 11.4 15.8.2.2.4.2.6.2.2 0 .4-.1.6-.2.5-.4 11.4-9.4 11.4-15.8 0-3.9-3.1-7-7-7z" id="aM"/>
    <path d="M21 5c-1.9 0-3.7.8-5 2.1C14.7 5.8 12.9 5 11 5c-3.9 0-7 3.1-7 7 0 6.4 10.9 15.4 11.4 15.8.2.2.4.2.6.2.2 0 .4-.1.6-.2.5-.4 11.4-9.4 11.4-15.8 0-3.9-3.1-7-7-7z" id="aO"/>
    <path d="M21 5c-1.9 0-3.7.8-5 2.1C14.7 5.8 12.9 5 11 5c-3.9 0-7 3.1-7 7 0 6.4 10.9 15.4 11.4 15.8.2.2.4.2.6.2.2 0 .4-.1.6-.2.5-.4 11.4-9.4 11.4-15.8 0-3.9-3.1-7-7-7z" id="aQ"/>
    <path d="M21 5c-1.9 0-3.7.8-5 2.1C14.7 5.8 12.9 5 11 5c-3.9 0-7 3.1-7 7 0 6.4 10.9 15.4 11.4 15.8.2.2.4.2.6.2.2 0 .4-.1.6-.2.5-.4 11.4-9.4 11.4-15.8 0-3.9-3.1-7-7-7z" id="aS"/>
    <path d="M26.832 15.445C26.656 15.182 22.462 9 16 9 9.506 9 5.34 15.185 5.166 15.448c-.222.335-.222.77.002 1.106C5.344 16.818 9.538 23 16 23c6.428 0 10.653-6.18 10.83-6.442.226-.336.227-.776.002-1.113zM16 21c-4.35 0-7.635-3.596-8.753-5.002.658-.832 2.075-2.425 4.024-3.59-.17.5-.27 1.033-.27 1.592 0 2.757 2.243 5 5 5s5-2.243 5-5c0-.555-.1-1.085-.268-1.582 1.94 1.164 3.357 2.75 4.018 3.58C23.623 17.41 20.324 21 16 21z" id="aU"/>
    <path d="M26.642 11.69l-7.334-7.333c-.338-.338-.845-.447-1.294-.28L8.236 7.744c-.412.154-.71.522-.777.958l-2.446 15.89c-.06.383.07.774.344 1.05.23.23.54.357.864.357.062 0 .125-.006.186-.015l15.89-2.445c.435-.067.802-.364.957-.778l3.667-9.778c.168-.45.058-.955-.28-1.293zm-8.914 5.038c-.954.954-2.502.954-3.456 0-.955-.955-.955-2.502 0-3.457.954-.953 2.502-.953 3.456 0 .955.956.955 2.503 0 3.458z" id="aW"/>
    <path d="M27.868 5.057c.017-.284-.09-.56-.29-.762-.2-.202-.495-.312-.76-.293-4.195.22-7.593 1.493-10.306 3.17-3.287-1.2-6.94-.43-9.44 2.07-.522.522-.987 1.128-1.384 1.8-.23.392-.167.892.155 1.215l2.882 2.882c-.784 1.296-1.154 2.182-1.167 2.215-.15.372-.062.797.22 1.08l5.658 5.657c.19.19.447.293.707.293.128 0 .256-.024.38-.074.032-.012.91-.385 2.2-1.173l2.892 2.89c.192.194.448.294.707.294.175 0 .35-.044.508-.138.674-.397 1.278-.862 1.8-1.383 2.52-2.523 3.287-6.194 2.058-9.49 1.67-2.707 2.944-6.09 3.18-10.253zm-13.51 17.13L9.68 17.508c.817-1.69 3.538-6.486 9.05-9.336l4.94 4.94c-2.854 5.503-7.626 8.245-9.312 9.072zm-9.245.528c1.11-1.11 2.91-1.11 4.022 0 1.11 1.11 1.11 2.91 0 4.022C8.025 27.847 4 27.87 4 27.87s.002-4.045 1.113-5.155zm14.3-7.43c.782-.78.782-2.047 0-2.828-.78-.78-2.046-.78-2.827 0-.78.78-.78 2.047 0 2.83.78.78 2.047.78 2.828 0z" id="aY"/>
    <path d="M21 5c-1.9 0-3.7.8-5 2.1C14.7 5.8 12.9 5 11 5c-3.9 0-7 3.1-7 7 0 6.4 10.9 15.4 11.4 15.8.2.2.4.2.6.2.2 0 .4-.1.6-.2.5-.4 11.4-9.4 11.4-15.8 0-3.9-3.1-7-7-7z" id="ba"/>
    <path d="M27.868 5.057c.017-.284-.09-.56-.29-.762-.2-.202-.495-.312-.76-.293-4.195.22-7.593 1.493-10.306 3.17-3.287-1.2-6.94-.43-9.44 2.07-.522.522-.987 1.128-1.384 1.8-.23.392-.167.892.155 1.215l2.882 2.882c-.784 1.296-1.154 2.182-1.167 2.215-.15.372-.062.797.22 1.08l5.658 5.657c.19.19.447.293.707.293.128 0 .256-.024.38-.074.032-.012.91-.385 2.2-1.173l2.892 2.89c.192.194.448.294.707.294.175 0 .35-.044.508-.138.674-.397 1.278-.862 1.8-1.383 2.52-2.523 3.287-6.194 2.058-9.49 1.67-2.707 2.944-6.09 3.18-10.253zm-13.51 17.13L9.68 17.508c.817-1.69 3.538-6.486 9.05-9.336l4.94 4.94c-2.854 5.503-7.626 8.245-9.312 9.072zm-9.245.528c1.11-1.11 2.91-1.11 4.022 0 1.11 1.11 1.11 2.91 0 4.022C8.025 27.847 4 27.87 4 27.87s.002-4.045 1.113-5.155zm14.3-7.43c.782-.78.782-2.047 0-2.828-.78-.78-2.046-.78-2.827 0-.78.78-.78 2.047 0 2.83.78.78 2.047.78 2.828 0z" id="bc"/>
    <path d="M16 4C9.4 4 4 9.4 4 16s5.4 12 12 12 12-5.4 12-12S22.6 4 16 4zm-6 9c0-1.1.9-2 2-2s2 .9 2 2-.9 2-2 2-2-.9-2-2zm11 6c0 2.8-2.2 5-5 5s-5-2.2-5-5h10zm-1-4c-1.1 0-2-.9-2-2s.9-2 2-2 2 .9 2 2-.9 2-2 2z" id="be"/>
    <path d="M16 4C9.4 4 4 9.4 4 16s5.4 12 12 12 12-5.4 12-12S22.6 4 16 4zm-6 9c0-1.1.9-2 2-2s2 .9 2 2-.9 2-2 2-2-.9-2-2zm11 6c0 2.8-2.2 5-5 5s-5-2.2-5-5h10zm-1-4c-1.1 0-2-.9-2-2s.9-2 2-2 2 .9 2 2-.9 2-2 2z" id="bg"/>
  </defs>
  <g fill="none" fill-rule="evenodd" opacity=".1">
    <g transform="rotate(171 488.077 95.572)">
      <mask id="b" fill="#fff">
        <use xlink:href="#a"/>
      </mask>
      <use fill-opacity="0" fill="#FFF"  xlink:href="#a"/>
      <path d="M0 0h32v32H0z" mask="url(#b)" fill="#1E1E1E"/>
    </g>
    <g transform="rotate(-2 2077.3 -10999.348)">
      <mask id="d" fill="#fff">
        <use xlink:href="#c"/>
      </mask>
      <use fill-opacity="0" fill="#FFF"  xlink:href="#c"/>
      <path d="M0 0h32v32H0z" mask="url(#d)" fill="#1E1E1E"/>
    </g>
    <g transform="rotate(-7 1124.17 -12765.524)">
      <mask id="f" fill="#fff">
        <use xlink:href="#e"/>
      </mask>
      <use fill-opacity="0" fill="#FFF"  xlink:href="#e"/>
      <path d="M0 0h32v32H0z" mask="url(#f)" fill="#1E1E1E"/>
    </g>
    <g transform="rotate(-68 764.044 -1058.64)">
      <mask id="h" fill="#fff">
        <use xlink:href="#g"/>
      </mask>
      <use fill-opacity="0" fill="#FFF"  xlink:href="#g"/>
      <path d="M0 0h32v32H0z" mask="url(#h)" fill="#1E1E1E"/>
    </g>
    <g transform="rotate(-22 630.233 -2812.812)">
      <mask id="j" fill="#fff">
        <use xlink:href="#i"/>
      </mask>
      <use fill-opacity="0" fill="#FFF"  xlink:href="#i"/>
      <path d="M0 0h32v32H0z" mask="url(#j)" fill="#1E1E1E"/>
    </g>
    <g transform="rotate(82 142.96 200.85)">
      <mask id="l" fill="#fff">
        <use xlink:href="#k"/>
      </mask>
      <use fill-opacity="0" fill="#FFF"  xlink:href="#k"/>
      <path d="M0 0h32v32H0z" mask="url(#l)" fill="#1E1E1E"/>
    </g>
    <g transform="rotate(79 585.766 746.045)">
      <mask id="n" fill="#fff">
        <use xlink:href="#m"/>
      </mask>
      <use fill-opacity="0" fill="#FFF"  xlink:href="#m"/>
      <path d="M0 0h32v32H0z" mask="url(#n)" fill="#1E1E1E"/>
    </g>
    <g transform="rotate(92 240.148 264.867)">
      <mask id="p" fill="#fff">
        <use xlink:href="#o"/>
      </mask>
      <use fill-opacity="0" fill="#FFF"  xlink:href="#o"/>
      <path d="M0 0h32v32H0z" mask="url(#p)" fill="#1E1E1E"/>
    </g>
    <g transform="rotate(65 485.893 787.56)">
      <mask id="r" fill="#fff">
        <use xlink:href="#q"/>
      </mask>
      <use fill-opacity="0" fill="#FFF"  xlink:href="#q"/>
      <path d="M0 0h32v32H0z" mask="url(#r)" fill="#1E1E1E"/>
    </g>
    <g transform="rotate(-77 394.51 -436.548)">
      <mask id="t" fill="#fff">
        <use xlink:href="#s"/>
      </mask>
      <use fill-opacity="0" fill="#FFF"  xlink:href="#s"/>
      <path d="M0 0h32v32H0z" mask="url(#t)" fill="#1E1E1E"/>
    </g>
    <g transform="rotate(-6 757.17 -5665.905)">
      <mask id="v" fill="#fff">
        <use xlink:href="#u"/>
      </mask>
      <use fill-opacity="0" fill="#FFF"  xlink:href="#u"/>
      <path d="M0 0h32v32H0z" mask="url(#v)" fill="#1E1E1E"/>
    </g>
    <g transform="rotate(-98 474.33 -364.224)">
      <mask id="x" fill="#fff">
        <use xlink:href="#w"/>
      </mask>
      <use fill-opacity="0" fill="#FFF"  xlink:href="#w"/>
      <path d="M0 0h32v32H0z" mask="url(#x)" fill="#1E1E1E"/>
    </g>
    <g transform="rotate(2 199.22 37828.256)">
      <mask id="z" fill="#fff">
        <use xlink:href="#y"/>
      </mask>
      <use fill-opacity="0" fill="#FFF"  xlink:href="#y"/>
      <path d="M0 0h32v32H0z" mask="url(#z)" fill="#1E1E1E"/>
    </g>
    <g opacity=".2">
      <g transform="rotate(113 -44.14 168.364)">
        <mask id="B" fill="#fff">
          <use xlink:href="#A"/>
        </mask>
        <use fill-opacity="0" fill="#FFF"  xlink:href="#A"/>
        <path d="M0 0h32v32H0z" mask="url(#B)" fill="#1E1E1E"/>
      </g>
      <g transform="rotate(86 455.655 735.917)">
        <mask id="D" fill="#fff">
          <use xlink:href="#C"/>
        </mask>
        <use fill-opacity="0" fill="#FFF"  xlink:href="#C"/>
        <path d="M0 0h32v32H0z" mask="url(#D)" fill="#1E1E1E"/>
      </g>
      <g transform="rotate(177 285.753 142.48)">
        <mask id="F" fill="#fff">
          <use xlink:href="#E"/>
        </mask>
        <use fill-opacity="0" fill="#FFF"  xlink:href="#E"/>
        <path d="M0 0h32v32H0z" mask="url(#F)" fill="#1E1E1E"/>
      </g>
      <g transform="rotate(-148 240.983 81.93)">
        <mask id="H" fill="#fff">
          <use xlink:href="#G"/>
        </mask>
        <use fill-opacity="0" fill="#FFF"  xlink:href="#G"/>
        <path d="M0 0h32v32H0z" mask="url(#H)" fill="#1E1E1E"/>
      </g>
      <g transform="rotate(86 40.713 314.33)">
        <mask id="J" fill="#fff">
          <use xlink:href="#I"/>
        </mask>
        <use fill-opacity="0" fill="#FFF"  xlink:href="#I"/>
        <path d="M0 0h32v32H0z" mask="url(#J)" fill="#1E1E1E"/>
      </g>
      <g transform="rotate(19 -423.32 2289.532)">
        <mask id="L" fill="#fff">
          <use xlink:href="#K"/>
        </mask>
        <use fill-opacity="0" fill="#FFF"  xlink:href="#K"/>
        <path d="M0 0h32v32H0z" mask="url(#L)" fill="#1E1E1E"/>
      </g>
      <g transform="rotate(51 109.33 823.908)">
        <mask id="N" fill="#fff">
          <use xlink:href="#M"/>
        </mask>
        <use fill-opacity="0" fill="#FFF"  xlink:href="#M"/>
        <path d="M0 0h32v32H0z" mask="url(#N)" fill="#1E1E1E"/>
      </g>
      <g transform="rotate(-21 1423.865 -3953.698)">
        <mask id="P" fill="#fff">
          <use xlink:href="#O"/>
        </mask>
        <use fill-opacity="0" fill="#FFF"  xlink:href="#O"/>
        <path d="M0 0h32v32H0z" mask="url(#P)" fill="#1E1E1E"/>
      </g>
      <g transform="rotate(-3 4962.854 -22416.486)">
        <mask id="R" fill="#fff">
          <use xlink:href="#Q"/>
        </mask>
        <use fill-opacity="0" fill="#FFF"  xlink:href="#Q"/>
        <path d="M0 0h32v32H0z" mask="url(#R)" fill="#1E1E1E"/>
      </g>
      <g transform="rotate(-124 584.555 -132.077)">
        <mask id="T" fill="#fff">
          <use xlink:href="#S"/>
        </mask>
        <use fill-opacity="0" fill="#FFF"  xlink:href="#S"/>
        <path d="M0 0h32v32H0z" mask="url(#T)" fill="#1E1E1E"/>
      </g>
      <g transform="rotate(148 637.727 324.328)">
        <mask id="V" fill="#fff">
          <use xlink:href="#U"/>
        </mask>
        <use fill-opacity="0" fill="#FFF"  xlink:href="#U"/>
        <path d="M0 0h32v32H0z" mask="url(#V)" fill="#1E1E1E"/>
      </g>
      <g transform="rotate(-149 117.443 118.068)">
        <mask id="X" fill="#fff">
          <use xlink:href="#W"/>
        </mask>
        <use fill-opacity="0" fill="#FFF"  xlink:href="#W"/>
        <path d="M0 0h32v32H0z" mask="url(#X)" fill="#1E1E1E"/>
      </g>
      <g transform="rotate(-138 773.41 -124.01)">
        <mask id="Z" fill="#fff">
          <use xlink:href="#Y"/>
        </mask>
        <use fill-opacity="0" fill="#FFF"  xlink:href="#Y"/>
        <path d="M0 0h32v32H0z" mask="url(#Z)" fill="#1E1E1E"/>
      </g>
      <g transform="rotate(-56 700.192 -683.27)">
        <mask id="ab" fill="#fff">
          <use xlink:href="#aa"/>
        </mask>
        <use fill-opacity="0" fill="#FFF"  xlink:href="#aa"/>
        <path d="M0 0h32v32H0z" mask="url(#ab)" fill="#1E1E1E"/>
      </g>
    </g>
    <g transform="rotate(71 371.085 630.415)">
      <mask id="ad" fill="#fff">
        <use xlink:href="#ac"/>
      </mask>
      <use fill-opacity="0" fill="#FFF"  xlink:href="#ac"/>
      <path d="M0 0h32v32H0z" mask="url(#ad)" fill="#1E1E1E"/>
    </g>
    <g opacity=".4">
      <g transform="rotate(-31 430.616 -240.54)">
        <mask id="af" fill="#fff">
          <use xlink:href="#ae"/>
        </mask>
        <use fill-opacity="0" fill="#FFF"  xlink:href="#ae"/>
        <path d="M0 0h32v32H0z" mask="url(#af)" fill="#1E1E1E"/>
      </g>
      <g transform="rotate(-11 1547.323 -6719.12)">
        <mask id="ah" fill="#fff">
          <use xlink:href="#ag"/>
        </mask>
        <use fill-opacity="0" fill="#FFF"  xlink:href="#ag"/>
        <path d="M0 0h32v32H0z" mask="url(#ah)" fill="#1E1E1E"/>
      </g>
      <g transform="rotate(80 206.72 476.294)">
        <mask id="aj" fill="#fff">
          <use xlink:href="#ai"/>
        </mask>
        <use fill-opacity="0" fill="#FFF"  xlink:href="#ai"/>
        <path d="M0 0h32v32H0z" mask="url(#aj)" fill="#1E1E1E"/>
      </g>
      <g transform="rotate(-16 1060.4 -3281.928)">
        <mask id="al" fill="#fff">
          <use xlink:href="#ak"/>
        </mask>
        <use fill-opacity="0" fill="#FFF"  xlink:href="#ak"/>
        <path d="M0 0h32v32H0z" mask="url(#al)" fill="#1E1E1E"/>
      </g>
      <g transform="rotate(-67 589.706 -561.6)">
        <mask id="an" fill="#fff">
          <use xlink:href="#am"/>
        </mask>
        <use fill-opacity="0" fill="#FFF"  xlink:href="#am"/>
        <path d="M0 0h32v32H0z" mask="url(#an)" fill="#1E1E1E"/>
      </g>
      <g transform="rotate(-112 677.547 -287.687)">
        <mask id="ap" fill="#fff">
          <use xlink:href="#ao"/>
        </mask>
        <use fill-opacity="0" fill="#FFF"  xlink:href="#ao"/>
        <path d="M0 0h32v32H0z" mask="url(#ap)" fill="#1E1E1E"/>
      </g>
      <g transform="rotate(-135 441.346 -61.592)">
        <mask id="ar" fill="#fff">
          <use xlink:href="#aq"/>
        </mask>
        <use fill-opacity="0" fill="#FFF"  xlink:href="#aq"/>
        <path d="M0 0h32v32H0z" mask="url(#ar)" fill="#1E1E1E"/>
      </g>
      <g transform="rotate(-80 336.56 -163.21)">
        <mask id="at" fill="#fff">
          <use xlink:href="#as"/>
        </mask>
        <use fill-opacity="0" fill="#FFF"  xlink:href="#as"/>
        <path d="M0 0h32v32H0z" mask="url(#at)" fill="#1E1E1E"/>
      </g>
      <g transform="rotate(156 51.115 109.903)">
        <mask id="av" fill="#fff">
          <use xlink:href="#au"/>
        </mask>
        <use fill-opacity="0" fill="#FFF"  xlink:href="#au"/>
        <path d="M0 0h32v32H0z" mask="url(#av)" fill="#1E1E1E"/>
      </g>
      <g transform="rotate(133 -15.72 117.602)">
        <mask id="ax" fill="#fff">
          <use xlink:href="#aw"/>
        </mask>
        <use fill-opacity="0" fill="#FFF"  xlink:href="#aw"/>
        <path d="M0 0h32v32H0z" mask="url(#ax)" fill="#1E1E1E"/>
      </g>
      <g transform="rotate(-20 691.108 -904.765)">
        <mask id="az" fill="#fff">
          <use xlink:href="#ay"/>
        </mask>
        <use fill-opacity="0" fill="#FFF" xlink:href="#ay"/>
        <path d="M0 0h32v32H0z" mask="url(#az)" fill="#1E1E1E"/>
      </g>
      <g transform="rotate(98 619.017 713.436)">
        <mask id="aB" fill="#fff">
          <use xlink:href="#aA"/>
        </mask>
        <use fill-opacity="0" fill="#FFF"  xlink:href="#aA"/>
        <path d="M0 0h32v32H0z" mask="url(#aB)" fill="#1E1E1E"/>
      </g>
      <g transform="rotate(-145 411.708 -8.41)">
        <mask id="aD" fill="#fff">
          <use xlink:href="#aC"/>
        </mask>
        <use fill-opacity="0" fill="#FFF"  xlink:href="#aC"/>
        <path d="M0 0h32v32H0z" mask="url(#aD)" fill="#1E1E1E"/>
      </g>
      <g transform="rotate(-2 4722.563 -14116.764)">
        <mask id="aF" fill="#fff">
          <use xlink:href="#aE"/>
        </mask>
        <use fill-opacity="0" fill="#FFF"  xlink:href="#aE"/>
        <path d="M0 0h32v32H0z" mask="url(#aF)" fill="#1E1E1E"/>
      </g>
      <g transform="rotate(-18 1279.434 -4618.767)">
        <mask id="aH" fill="#fff">
          <use xlink:href="#aG"/>
        </mask>
        <use fill-opacity="0" fill="#FFF"  xlink:href="#aG"/>
        <path d="M0 0h32v32H0z" mask="url(#aH)" fill="#1E1E1E"/>
      </g>
      <g transform="rotate(56 -.51 354.505)">
        <mask id="aJ" fill="#fff">
          <use xlink:href="#aI"/>
        </mask>
        <use fill-opacity="0" fill="#FFF"  xlink:href="#aI"/>
        <path d="M0 0h32v32H0z" mask="url(#aJ)" fill="#1E1E1E"/>
      </g>
    </g>
    <g opacity=".6">
      <g transform="rotate(-4 1958.552 -8665.84)">
        <mask id="aL" fill="#fff">
          <use xlink:href="#aK"/>
        </mask>
        <use fill-opacity="0" fill="#FFF"  xlink:href="#aK"/>
        <path d="M0 0h32v32H0z" mask="url(#aL)" fill="#1E1E1E"/>
      </g>
      <g transform="rotate(-161 732.715 -76.007)">
        <mask id="aN" fill="#fff">
          <use xlink:href="#aM"/>
        </mask>
        <use fill-opacity="0" fill="#FFF"  xlink:href="#aM"/>
        <path d="M0 0h32v32H0z" mask="url(#aN)" fill="#1E1E1E"/>
      </g>
      <g transform="rotate(-111 769.844 -413.36)">
        <mask id="aP" fill="#fff">
          <use xlink:href="#aO"/>
        </mask>
        <use fill-opacity="0" fill="#FFF"  xlink:href="#aO"/>
        <path d="M0 0h32v32H0z" mask="url(#aP)" fill="#1E1E1E"/>
      </g>
      <g transform="rotate(31 514.978 2476.727)">
        <mask id="aR" fill="#fff">
          <use xlink:href="#aQ"/>
        </mask>
        <use fill-opacity="0" fill="#FFF"  xlink:href="#aQ"/>
        <path d="M0 0h32v32H0z" mask="url(#aR)" fill="#1E1E1E"/>
      </g>
      <g transform="rotate(45 153.195 638.397)">
        <mask id="aT" fill="#fff">
          <use xlink:href="#aS"/>
        </mask>
        <use fill-opacity="0" fill="#FFF"  xlink:href="#aS"/>
        <path d="M0 0h32v32H0z" mask="url(#aT)" fill="#1E1E1E"/>
      </g>
      <g transform="rotate(16 317.492 4463.607)">
        <mask id="aV" fill="#fff">
          <use xlink:href="#aU"/>
        </mask>
        <use fill-opacity="0" fill="#FFF"  xlink:href="#aU"/>
        <path d="M0 0h32v32H0z" mask="url(#aV)" fill="#1E1E1E"/>
      </g>
      <g transform="rotate(35 -47.27 350.764)">
        <mask id="aX" fill="#fff">
          <use xlink:href="#aW"/>
        </mask>
        <use fill-opacity="0" fill="#FFF"  xlink:href="#aW"/>
        <path d="M0 0h32v32H0z" mask="url(#aX)" fill="#1E1E1E"/>
      </g>
      <g transform="rotate(-35 673.668 -1591.488)">
        <mask id="aZ" fill="#fff">
          <use xlink:href="#aY"/>
        </mask>
        <use fill-opacity="0" fill="#FFF"  xlink:href="#aY"/>
        <path d="M0 0h32v32H0z" mask="url(#aZ)" fill="#1E1E1E"/>
      </g>
      <g transform="rotate(-176 579.96 61.83)">
        <mask id="bb" fill="#fff">
          <use xlink:href="#ba"/>
        </mask>
        <use fill-opacity="0" fill="#FFF"  xlink:href="#ba"/>
        <path d="M0 0h32v32H0z" mask="url(#bb)" fill="#1E1E1E"/>
      </g>
      <g transform="rotate(-84 223.148 -94.512)">
        <mask id="bd" fill="#fff">
          <use xlink:href="#bc"/>
        </mask>
        <use fill-opacity="0" fill="#FFF"  xlink:href="#bc"/>
        <path d="M0 0h32v32H0z" mask="url(#bd)" fill="#1E1E1E"/>
      </g>
      <g transform="rotate(-153 379.942 -14.14)">
        <mask id="bf" fill="#fff">
          <use xlink:href="#be"/>
        </mask>
        <use fill-opacity="0" fill="#FFF"  xlink:href="#be"/>
        <path d="M0 0h32v32H0z" mask="url(#bf)" fill="#1E1E1E"/>
      </g>
      <g transform="rotate(-114 89.143 42.173)">
        <mask id="bh" fill="#fff">
          <use xlink:href="#bg"/>
        </mask>
        <use fill-opacity="0" fill="#FFF"  xlink:href="#bg"/>
        <path d="M0 0h32v32H0z" mask="url(#bh)" fill="#1E1E1E"/>
      </g>
    </g>
  </g>
</svg>
